<?xml version="1.0" standalone="no"?>
<!DOCTYPE svg PUBLIC "-//W3C//DTD SVG 20010904//EN"
 "http://www.w3.org/TR/2001/REC-SVG-20010904/DTD/svg10.dtd">
<svg version="1.0" xmlns="http://www.w3.org/2000/svg"
 width="900.000000pt" height="363.000000pt" viewBox="0 0 900.000000 363.000000"
 preserveAspectRatio="xMidYMid meet">
<metadata>
Created by potrace 1.10, written by Peter Selinger 2001-2011
</metadata>
<g transform="translate(0.000000,363.000000) scale(0.100000,-0.100000)"
fill="#f36000" stroke="none">
<path d="M1205 2560 c-9 -15 38 -40 75 -40 33 -1 120 -26 148 -43 7 -5 12 -30
12 -60 1 -29 7 -70 15 -92 8 -22 15 -63 15 -90 0 -28 7 -77 15 -108 8 -32 15
-82 15 -111 0 -29 6 -75 14 -102 8 -27 17 -88 20 -136 l6 -87 -34 -37 c-59
-65 -59 -158 0 -215 l35 -34 416 0 c324 0 417 3 420 13 4 9 -79 12 -394 12
-378 0 -400 1 -430 20 -36 22 -67 83 -58 117 3 12 17 35 31 52 l26 31 408 0
408 0 21 40 c12 22 21 48 21 58 0 9 7 26 15 36 8 11 15 30 15 42 0 12 7 27 15
34 8 7 15 22 15 34 0 11 7 30 15 40 8 11 15 30 15 42 0 12 7 27 15 34 8 7 15
22 15 34 0 12 7 31 15 42 8 10 15 28 15 39 0 11 7 29 15 39 8 11 15 29 15 40
0 11 6 27 14 35 7 9 16 31 19 49 l7 32 -565 0 c-643 0 -578 -11 -588 98 -7 82
-26 112 -72 112 -19 0 -52 6 -72 14 -47 18 -121 27 -128 16z m553 -323 c9 -7
12 -65 12 -226 l0 -218 -24 -22 c-31 -29 -72 -22 -86 15 -13 33 -13 405 -1
438 13 34 63 41 99 13z m201 -13 c7 -16 11 -99 11 -223 0 -185 -1 -200 -21
-225 -25 -32 -54 -33 -85 -3 -23 22 -24 24 -24 232 0 116 4 215 8 221 25 37
93 36 111 -2z m176 26 l25 -10 -2 -232 -3 -232 -27 -15 c-21 -12 -31 -13 -52
-3 l-26 12 0 235 c0 235 0 236 23 245 29 12 31 12 62 0z m220 -30 c12 -23 15
-68 15 -216 0 -172 -2 -189 -21 -220 -27 -45 -66 -46 -97 -4 -21 28 -22 39
-22 225 0 228 5 245 71 245 33 0 41 -5 54 -30z"/>
<path d="M5092 2267 c-17 -18 -22 -36 -22 -75 0 -50 1 -52 41 -73 40 -20 43
-20 80 -4 42 20 56 52 45 110 -12 63 -100 88 -144 42z"/>
<path d="M7353 1903 c3 -297 6 -311 69 -386 53 -63 152 -107 238 -107 l60 0 0
70 0 70 -39 0 c-49 0 -99 21 -134 56 -35 35 -39 51 -35 154 l3 85 80 5 80 5 3
67 3 67 -83 3 -83 3 -5 85 -5 85 -78 3 -78 3 4 -268z"/>
<path d="M5404 2151 c-2 -2 -4 -170 -4 -373 l0 -368 80 0 80 0 0 170 c0 150 2
171 17 177 19 7 24 1 119 -132 35 -49 71 -97 79 -106 8 -9 15 -19 15 -23 0 -5
14 -26 31 -47 l31 -39 89 0 c49 0 89 2 89 5 0 12 -37 68 -93 140 -39 51 -107
145 -107 149 0 3 -11 17 -25 32 -34 37 -32 57 15 123 22 31 63 88 90 126 27
39 53 75 57 80 19 24 43 65 43 75 0 6 -34 10 -89 10 l-90 0 -38 -56 c-21 -31
-42 -61 -48 -68 -5 -6 -14 -19 -20 -28 -34 -56 -92 -137 -113 -160 -45 -48
-52 -27 -52 152 l0 158 -76 4 c-42 2 -78 1 -80 -1z"/>
<path d="M3030 2141 c0 -6 0 -164 0 -351 0 -187 0 -349 0 -360 0 -19 7 -20
128 -20 252 1 372 51 449 188 l38 67 -1 127 c0 105 -3 131 -17 146 -9 10 -17
25 -17 33 0 25 -117 139 -143 139 -7 0 -23 8 -37 17 -19 14 -57 17 -212 21
-136 3 -188 1 -188 -7z m358 -155 c72 -45 121 -144 109 -218 -16 -89 -21 -101
-67 -147 -42 -42 -55 -49 -101 -54 -86 -11 -126 -8 -143 9 -14 13 -16 47 -16
213 0 140 3 200 12 209 7 7 43 12 90 12 65 0 85 -4 116 -24z"/>
<path d="M3959 2001 c-94 -34 -160 -104 -184 -195 -46 -177 26 -320 190 -378
66 -23 214 -24 278 -2 l47 16 0 63 0 63 -142 -1 c-138 -2 -144 -1 -176 23 -24
18 -32 31 -30 50 2 19 8 24 23 21 11 -2 61 -6 111 -8 85 -4 95 -2 155 26 80
38 99 68 99 156 0 62 -1 65 -42 105 -76 74 -218 100 -329 61z m204 -148 c4 -2
7 -19 7 -36 0 -44 -39 -67 -112 -67 -57 0 -95 15 -112 43 -9 15 -6 22 19 40
16 12 45 25 65 28 34 6 117 1 133 -8z"/>
<path d="M4580 2002 c-98 -38 -140 -88 -140 -167 0 -73 64 -155 120 -155 11 0
37 -7 57 -15 19 -8 53 -15 76 -15 47 0 107 -33 107 -60 0 -51 -77 -57 -318
-24 l-43 6 3 -68 3 -68 50 -13 c73 -18 254 -17 307 3 112 42 158 92 158 171 0
104 -73 159 -245 183 -103 14 -142 43 -105 80 17 17 34 20 98 20 42 0 92 -4
109 -9 18 -5 49 -11 70 -13 l38 -3 0 70 0 70 -40 8 c-22 5 -89 11 -150 13 -87
2 -120 -1 -155 -14z"/>
<path d="M5075 2007 c-3 -7 -4 -143 -3 -302 l3 -290 78 -3 77 -3 0 306 0 305
-75 0 c-52 0 -77 -4 -80 -13z"/>
<path d="M6310 2005 c-14 -8 -33 -14 -43 -15 -22 0 -37 -11 -99 -74 -26 -27
-48 -58 -48 -70 -1 -11 -7 -32 -15 -46 -32 -56 -8 -186 50 -270 51 -73 120
-110 221 -117 67 -5 105 9 159 60 40 36 52 34 65 -12 12 -46 22 -51 101 -51
57 0 59 1 59 26 0 14 -6 35 -12 47 -7 13 -16 80 -19 157 -9 185 -21 221 -90
290 -43 43 -68 59 -115 73 -71 21 -179 22 -214 2z m163 -140 c19 -8 49 -32 66
-54 27 -34 31 -47 31 -98 0 -51 -5 -66 -30 -101 -17 -25 -38 -42 -49 -42 -11
0 -23 -4 -26 -10 -21 -34 -185 17 -185 57 0 6 -7 16 -15 23 -10 9 -15 31 -15
72 0 52 4 65 31 100 51 63 121 83 192 53z"/>
<path d="M7087 2000 c-26 -9 -53 -22 -59 -28 -7 -7 -16 -12 -21 -12 -13 0 -53
-44 -85 -94 -26 -41 -26 -41 -27 -246 l0 -205 68 -3 c49 -2 67 1 69 10 0 7 2
81 2 163 1 125 5 157 21 193 24 54 68 82 128 82 25 0 48 4 51 8 2 4 6 39 7 77
l3 70 -55 1 c-30 1 -76 -6 -102 -16z"/>
<path d="M1650 1267 c-38 -19 -40 -73 -4 -104 33 -28 52 -29 82 -4 16 14 22
30 22 60 0 35 -4 43 -26 51 -33 13 -44 12 -74 -3z"/>
<path d="M2243 1270 c-19 -8 -23 -17 -23 -51 0 -30 6 -46 23 -60 29 -24 42
-24 77 3 72 53 8 142 -77 108z"/>
</g>
</svg>
